<svg xmlns="http://www.w3.org/2000/svg" width="32" height="32" viewBox="0 0 48 48" fill="none">
  <defs>
    <linearGradient id="g1" x1="0%" y1="0%" x2="100%" y2="100%">
      <stop offset="0%" stop-color="#06b6d4"/>
      <stop offset="50%" stop-color="#10b981"/>
      <stop offset="100%" stop-color="#06b6d4"/>
    </linearGradient>
    <linearGradient id="g2" x1="100%" y1="0%" x2="0%" y2="100%">
      <stop offset="0%" stop-color="#14b8a6"/>
      <stop offset="100%" stop-color="#059669"/>
    </linearGradient>
  </defs>
  <!-- Background rounded square -->
  <rect x="4" y="4" width="40" height="40" rx="12" fill="#0a1628"/>
  <!-- Dashed outer ring -->
  <circle cx="24" cy="24" r="20" stroke="url(#g1)" stroke-width="1.5" fill="none" stroke-dasharray="4 6" opacity="0.4"/>
  <!-- Inner border -->
  <rect x="7" y="7" width="34" height="34" rx="9" stroke="url(#g1)" stroke-width="1.5" fill="none"/>
  <!-- Cursor icon -->
  <path d="M18 31 L18 14 L22 20 L28 20 Z" fill="url(#g2)"/>
  <line x1="18" y1="31" x2="28" y2="35" stroke="url(#g1)" stroke-width="1.5" stroke-linecap="round"/>
  <!-- Code brackets -->
  <path d="M10 20 L14 24 L10 28" stroke="url(#g1)" stroke-width="1.5" stroke-linecap="round" stroke-linejoin="round" fill="none" opacity="0.7"/>
  <path d="M38 20 L34 24 L38 28" stroke="url(#g1)" stroke-width="1.5" stroke-linecap="round" stroke-linejoin="round" fill="none" opacity="0.7"/>
  <!-- Center dot -->
  <circle cx="24" cy="24" r="2" fill="url(#g1)"/>
  <!-- Corner particles -->
  <circle cx="9" cy="11" r="1.2" fill="#06b6d4" opacity="0.8"/>
  <circle cx="39" cy="10" r="0.8" fill="#10b981" opacity="0.8"/>
  <circle cx="40" cy="37" r="1" fill="#06b6d4" opacity="0.8"/>
  <circle cx="8" cy="38" r="0.7" fill="#10b981" opacity="0.8"/>
</svg>
